<svg xmlns="http://www.w3.org/2000/svg" version="1.1" xmlns:xlink="http://www.w3.org/1999/xlink" xmlns:svgjs="http://svgjs.com/svgjs" width="1440" height="560" preserveAspectRatio="none" viewBox="0 0 1440 560"><g mask="url(&quot;#SvgjsMask1000&quot;)" fill="none"><rect width="1440" height="560" x="0" y="0" fill="#0e2a47"></rect><path d="M-66.81 389.29L-66.81 389.29" stroke="#132e65" stroke-width="1.5"></path><path d="M-66.81 389.29L48.34 390.22" stroke="#132e65" stroke-width="1.5"></path><path d="M-66.81 389.29L-60.62 549.76" stroke="#132e65" stroke-width="1.5"></path><path d="M-66.81 389.29L80.43 504.08" stroke="#132e65" stroke-width="1.5"></path><path d="M-66.81 389.29L216.32 394.34" stroke="#132e65" stroke-width="1.5"></path><path d="M-60.62 549.76L-60.62 549.76" stroke="#132e65" stroke-width="1.5"></path><path d="M-60.62 549.76L-96.83 679.39" stroke="#132e65" stroke-width="1.5"></path><path d="M-60.62 549.76L80.43 504.08" stroke="#132e65" stroke-width="1.5"></path><path d="M-60.62 549.76L48.34 390.22" stroke="#132e65" stroke-width="1.5"></path><path d="M-60.62 549.76L89.63 701.38" stroke="#132e65" stroke-width="1.5"></path><path d="M-96.83 679.39L-96.83 679.39" stroke="#132e65" stroke-width="1.5"></path><path d="M-96.83 679.39L89.63 701.38" stroke="#132e65" stroke-width="1.5"></path><path d="M-96.83 679.39L80.43 504.08" stroke="#132e65" stroke-width="1.5"></path><path d="M48.34 390.22L48.34 390.22" stroke="#132e65" stroke-width="1.5"></path><path d="M48.34 390.22L80.43 504.08" stroke="#132e65" stroke-width="1.5"></path><path d="M48.34 390.22L216.32 394.34" stroke="#132e65" stroke-width="1.5"></path><path d="M48.34 390.22L242.94 521.61" stroke="#132e65" stroke-width="1.5"></path><path d="M48.34 390.22L348.24 368.02" stroke="#132e65" stroke-width="1.5"></path><path d="M80.43 504.08L80.43 504.08" stroke="#132e65" stroke-width="1.5"></path><path d="M89.63 701.38L89.63 701.38" stroke="#132e65" stroke-width="1.5"></path><path d="M89.63 701.38L247.06 698.88" stroke="#132e65" stroke-width="1.5"></path><path d="M89.63 701.38L80.43 504.08" stroke="#132e65" stroke-width="1.5"></path><path d="M89.63 701.38L242.94 521.61" stroke="#132e65" stroke-width="1.5"></path><path d="M216.32 394.34L216.32 394.34" stroke="#132e65" stroke-width="1.5"></path><path d="M216.32 394.34L242.94 521.61" stroke="#132e65" stroke-width="1.5"></path><path d="M216.32 394.34L348.24 368.02" stroke="#132e65" stroke-width="1.5"></path><path d="M216.32 394.34L350.59 505.62" stroke="#132e65" stroke-width="1.5"></path><path d="M216.32 394.34L80.43 504.08" stroke="#132e65" stroke-width="1.5"></path><path d="M242.94 521.61L242.94 521.61" stroke="#132e65" stroke-width="1.5"></path><path d="M242.94 521.61L350.59 505.62" stroke="#132e65" stroke-width="1.5"></path><path d="M247.06 698.88L247.06 698.88" stroke="#132e65" stroke-width="1.5"></path><path d="M247.06 698.88L364.32 655.25" stroke="#132e65" stroke-width="1.5"></path><path d="M247.06 698.88L242.94 521.61" stroke="#132e65" stroke-width="1.5"></path><path d="M247.06 698.88L350.59 505.62" stroke="#132e65" stroke-width="1.5"></path><path d="M247.06 698.88L80.43 504.08" stroke="#132e65" stroke-width="1.5"></path><path d="M247.06 698.88L523.66 686.96" stroke="#132e65" stroke-width="1.5"></path><path d="M348.24 368.02L348.24 368.02" stroke="#132e65" stroke-width="1.5"></path><path d="M348.24 368.02L350.59 505.62" stroke="#132e65" stroke-width="1.5"></path><path d="M348.24 368.02L242.94 521.61" stroke="#132e65" stroke-width="1.5"></path><path d="M350.59 505.62L350.59 505.62" stroke="#132e65" stroke-width="1.5"></path><path d="M364.32 655.25L364.32 655.25" stroke="#132e65" stroke-width="1.5"></path><path d="M364.32 655.25L350.59 505.62" stroke="#132e65" stroke-width="1.5"></path><path d="M364.32 655.25L523.66 686.96" stroke="#132e65" stroke-width="1.5"></path><path d="M364.32 655.25L242.94 521.61" stroke="#132e65" stroke-width="1.5"></path><path d="M539.38 396.13L539.38 396.13" stroke="#132e65" stroke-width="1.5"></path><path d="M539.38 396.13L641.85 376.6" stroke="#132e65" stroke-width="1.5"></path><path d="M539.38 396.13L513.91 535.74" stroke="#132e65" stroke-width="1.5"></path><path d="M539.38 396.13L348.24 368.02" stroke="#132e65" stroke-width="1.5"></path><path d="M539.38 396.13L350.59 505.62" stroke="#132e65" stroke-width="1.5"></path><path d="M513.91 535.74L513.91 535.74" stroke="#132e65" stroke-width="1.5"></path><path d="M513.91 535.74L523.66 686.96" stroke="#132e65" stroke-width="1.5"></path><path d="M513.91 535.74L350.59 505.62" stroke="#132e65" stroke-width="1.5"></path><path d="M513.91 535.74L364.32 655.25" stroke="#132e65" stroke-width="1.5"></path><path d="M513.91 535.74L641.85 376.6" stroke="#132e65" stroke-width="1.5"></path><path d="M513.91 535.74L668.18 679.49" stroke="#132e65" stroke-width="1.5"></path><path d="M523.66 686.96L523.66 686.96" stroke="#132e65" stroke-width="1.5"></path><path d="M523.66 686.96L668.18 679.49" stroke="#132e65" stroke-width="1.5"></path><path d="M523.66 686.96L350.59 505.62" stroke="#132e65" stroke-width="1.5"></path><path d="M641.85 376.6L641.85 376.6" stroke="#132e65" stroke-width="1.5"></path><path d="M641.85 376.6L812.18 341.19" stroke="#132e65" stroke-width="1.5"></path><path d="M641.85 376.6L821.47 248.25" stroke="#132e65" stroke-width="1.5"></path><path d="M668.18 679.49L668.18 679.49" stroke="#132e65" stroke-width="1.5"></path><path d="M668.18 679.49L862.22 646.64" stroke="#132e65" stroke-width="1.5"></path><path d="M847.43 77.69L847.43 77.69" stroke="#132e65" stroke-width="1.5"></path><path d="M847.43 77.69L1002.1 70.21" stroke="#132e65" stroke-width="1.5"></path><path d="M847.43 77.69L821.47 248.25" stroke="#132e65" stroke-width="1.5"></path><path d="M847.43 77.69L1007.17 -43.54" stroke="#132e65" stroke-width="1.5"></path><path d="M847.43 77.69L998.18 230.88" stroke="#132e65" stroke-width="1.5"></path><path d="M821.47 248.25L821.47 248.25" stroke="#132e65" stroke-width="1.5"></path><path d="M821.47 248.25L812.18 341.19" stroke="#132e65" stroke-width="1.5"></path><path d="M821.47 248.25L998.18 230.88" stroke="#132e65" stroke-width="1.5"></path><path d="M821.47 248.25L976.74 364.33" stroke="#132e65" stroke-width="1.5"></path><path d="M812.18 341.19L812.18 341.19" stroke="#132e65" stroke-width="1.5"></path><path d="M812.18 341.19L844.54 499.44" stroke="#132e65" stroke-width="1.5"></path><path d="M812.18 341.19L976.74 364.33" stroke="#132e65" stroke-width="1.5"></path><path d="M812.18 341.19L998.18 230.88" stroke="#132e65" stroke-width="1.5"></path><path d="M812.18 341.19L947.91 537.59" stroke="#132e65" stroke-width="1.5"></path><path d="M844.54 499.44L844.54 499.44" stroke="#132e65" stroke-width="1.5"></path><path d="M844.54 499.44L947.91 537.59" stroke="#132e65" stroke-width="1.5"></path><path d="M844.54 499.44L862.22 646.64" stroke="#132e65" stroke-width="1.5"></path><path d="M862.22 646.64L862.22 646.64" stroke="#132e65" stroke-width="1.5"></path><path d="M862.22 646.64L981.12 669.91" stroke="#132e65" stroke-width="1.5"></path><path d="M862.22 646.64L947.91 537.59" stroke="#132e65" stroke-width="1.5"></path><path d="M1007.17 -43.54L1007.17 -43.54" stroke="#132e65" stroke-width="1.5"></path><path d="M1007.17 -43.54L1112.87 -52.54" stroke="#132e65" stroke-width="1.5"></path><path d="M1007.17 -43.54L1002.1 70.21" stroke="#132e65" stroke-width="1.5"></path><path d="M1007.17 -43.54L1087.96 54.9" stroke="#132e65" stroke-width="1.5"></path><path d="M1002.1 70.21L1002.1 70.21" stroke="#132e65" stroke-width="1.5"></path><path d="M1002.1 70.21L1087.96 54.9" stroke="#132e65" stroke-width="1.5"></path><path d="M1002.1 70.21L998.18 230.88" stroke="#132e65" stroke-width="1.5"></path><path d="M1002.1 70.21L1112.87 -52.54" stroke="#132e65" stroke-width="1.5"></path><path d="M1002.1 70.21L1110.12 237.85" stroke="#132e65" stroke-width="1.5"></path><path d="M998.18 230.88L998.18 230.88" stroke="#132e65" stroke-width="1.5"></path><path d="M998.18 230.88L1110.12 237.85" stroke="#132e65" stroke-width="1.5"></path><path d="M998.18 230.88L976.74 364.33" stroke="#132e65" stroke-width="1.5"></path><path d="M998.18 230.88L1111.67 353.53" stroke="#132e65" stroke-width="1.5"></path><path d="M976.74 364.33L976.74 364.33" stroke="#132e65" stroke-width="1.5"></path><path d="M976.74 364.33L1111.67 353.53" stroke="#132e65" stroke-width="1.5"></path><path d="M976.74 364.33L947.91 537.59" stroke="#132e65" stroke-width="1.5"></path><path d="M976.74 364.33L1110.12 237.85" stroke="#132e65" stroke-width="1.5"></path><path d="M976.74 364.33L844.54 499.44" stroke="#132e65" stroke-width="1.5"></path><path d="M947.91 537.59L947.91 537.59" stroke="#132e65" stroke-width="1.5"></path><path d="M947.91 537.59L981.12 669.91" stroke="#132e65" stroke-width="1.5"></path><path d="M981.12 669.91L981.12 669.91" stroke="#132e65" stroke-width="1.5"></path><path d="M981.12 669.91L1112.08 659.04" stroke="#132e65" stroke-width="1.5"></path><path d="M1112.87 -52.54L1112.87 -52.54" stroke="#132e65" stroke-width="1.5"></path><path d="M1112.87 -52.54L1087.96 54.9" stroke="#132e65" stroke-width="1.5"></path><path d="M1112.87 -52.54L1281.85 -50.03" stroke="#132e65" stroke-width="1.5"></path><path d="M1112.87 -52.54L1298.22 77.88" stroke="#132e65" stroke-width="1.5"></path><path d="M1112.87 -52.54L1110.12 237.85" stroke="#132e65" stroke-width="1.5"></path><path d="M1087.96 54.9L1087.96 54.9" stroke="#132e65" stroke-width="1.5"></path><path d="M1087.96 54.9L1110.12 237.85" stroke="#132e65" stroke-width="1.5"></path><path d="M1087.96 54.9L998.18 230.88" stroke="#132e65" stroke-width="1.5"></path><path d="M1087.96 54.9L1298.22 77.88" stroke="#132e65" stroke-width="1.5"></path><path d="M1110.12 237.85L1110.12 237.85" stroke="#132e65" stroke-width="1.5"></path><path d="M1110.12 237.85L1111.67 353.53" stroke="#132e65" stroke-width="1.5"></path><path d="M1111.67 353.53L1111.67 353.53" stroke="#132e65" stroke-width="1.5"></path><path d="M1111.67 353.53L1095.77 531.21" stroke="#132e65" stroke-width="1.5"></path><path d="M1111.67 353.53L1311.34 382.12" stroke="#132e65" stroke-width="1.5"></path><path d="M1095.77 531.21L1095.77 531.21" stroke="#132e65" stroke-width="1.5"></path><path d="M1095.77 531.21L1112.08 659.04" stroke="#132e65" stroke-width="1.5"></path><path d="M1095.77 531.21L947.91 537.59" stroke="#132e65" stroke-width="1.5"></path><path d="M1095.77 531.21L1248.36 508.93" stroke="#132e65" stroke-width="1.5"></path><path d="M1112.08 659.04L1112.08 659.04" stroke="#132e65" stroke-width="1.5"></path><path d="M1281.85 -50.03L1281.85 -50.03" stroke="#132e65" stroke-width="1.5"></path><path d="M1281.85 -50.03L1298.22 77.88" stroke="#132e65" stroke-width="1.5"></path><path d="M1298.22 77.88L1298.22 77.88" stroke="#132e65" stroke-width="1.5"></path><path d="M1298.22 77.88L1453.82 42.62" stroke="#132e65" stroke-width="1.5"></path><path d="M1298.22 77.88L1451.42 245.03" stroke="#132e65" stroke-width="1.5"></path><path d="M1298.22 77.88L1110.12 237.85" stroke="#132e65" stroke-width="1.5"></path><path d="M1311.34 382.12L1311.34 382.12" stroke="#132e65" stroke-width="1.5"></path><path d="M1311.34 382.12L1434.25 400.23" stroke="#132e65" stroke-width="1.5"></path><path d="M1311.34 382.12L1248.36 508.93" stroke="#132e65" stroke-width="1.5"></path><path d="M1311.34 382.12L1423.18 489.32" stroke="#132e65" stroke-width="1.5"></path><path d="M1248.36 508.93L1248.36 508.93" stroke="#132e65" stroke-width="1.5"></path><path d="M1248.36 508.93L1268.06 667.79" stroke="#132e65" stroke-width="1.5"></path><path d="M1248.36 508.93L1423.18 489.32" stroke="#132e65" stroke-width="1.5"></path><path d="M1248.36 508.93L1112.08 659.04" stroke="#132e65" stroke-width="1.5"></path><path d="M1248.36 508.93L1111.67 353.53" stroke="#132e65" stroke-width="1.5"></path><path d="M1268.06 667.79L1268.06 667.79" stroke="#132e65" stroke-width="1.5"></path><path d="M1268.06 667.79L1112.08 659.04" stroke="#132e65" stroke-width="1.5"></path><path d="M1268.06 667.79L1455.95 659.83" stroke="#132e65" stroke-width="1.5"></path><path d="M1268.06 667.79L1095.77 531.21" stroke="#132e65" stroke-width="1.5"></path><path d="M1268.06 667.79L1423.18 489.32" stroke="#132e65" stroke-width="1.5"></path><path d="M1453.82 42.62L1453.82 42.62" stroke="#132e65" stroke-width="1.5"></path><path d="M1453.82 42.62L1571.16 95.64" stroke="#132e65" stroke-width="1.5"></path><path d="M1453.82 42.62L1588 -92.53" stroke="#132e65" stroke-width="1.5"></path><path d="M1453.82 42.62L1281.85 -50.03" stroke="#132e65" stroke-width="1.5"></path><path d="M1453.82 42.62L1451.42 245.03" stroke="#132e65" stroke-width="1.5"></path><path d="M1451.42 245.03L1451.42 245.03" stroke="#132e65" stroke-width="1.5"></path><path d="M1451.42 245.03L1557.96 246.49" stroke="#132e65" stroke-width="1.5"></path><path d="M1451.42 245.03L1434.25 400.23" stroke="#132e65" stroke-width="1.5"></path><path d="M1434.25 400.23L1434.25 400.23" stroke="#132e65" stroke-width="1.5"></path><path d="M1434.25 400.23L1423.18 489.32" stroke="#132e65" stroke-width="1.5"></path><path d="M1423.18 489.32L1423.18 489.32" stroke="#132e65" stroke-width="1.5"></path><path d="M1423.18 489.32L1455.95 659.83" stroke="#132e65" stroke-width="1.5"></path><path d="M1455.95 659.83L1455.95 659.83" stroke="#132e65" stroke-width="1.5"></path><path d="M1455.95 659.83L1544.97 668.18" stroke="#132e65" stroke-width="1.5"></path><path d="M1455.95 659.83L1248.36 508.93" stroke="#132e65" stroke-width="1.5"></path><path d="M1455.95 659.83L1434.25 400.23" stroke="#132e65" stroke-width="1.5"></path><path d="M1588 -92.53L1588 -92.53" stroke="#132e65" stroke-width="1.5"></path><path d="M1588 -92.53L1571.16 95.64" stroke="#132e65" stroke-width="1.5"></path><path d="M1588 -92.53L1281.85 -50.03" stroke="#132e65" stroke-width="1.5"></path><path d="M1588 -92.53L1298.22 77.88" stroke="#132e65" stroke-width="1.5"></path><path d="M1588 -92.53L1557.96 246.49" stroke="#132e65" stroke-width="1.5"></path><path d="M1571.16 95.64L1571.16 95.64" stroke="#132e65" stroke-width="1.5"></path><path d="M1571.16 95.64L1557.96 246.49" stroke="#132e65" stroke-width="1.5"></path><path d="M1557.96 246.49L1557.96 246.49" stroke="#132e65" stroke-width="1.5"></path><path d="M1557.96 246.49L1434.25 400.23" stroke="#132e65" stroke-width="1.5"></path><path d="M1557.96 246.49L1453.82 42.62" stroke="#132e65" stroke-width="1.5"></path><path d="M1557.96 246.49L1423.18 489.32" stroke="#132e65" stroke-width="1.5"></path><path d="M1557.96 246.49L1311.34 382.12" stroke="#132e65" stroke-width="1.5"></path><path d="M1544.97 668.18L1544.97 668.18" stroke="#132e65" stroke-width="1.5"></path><path d="M1544.97 668.18L1423.18 489.32" stroke="#132e65" stroke-width="1.5"></path><circle r="5" cx="-66.81" cy="389.29" fill="#132e65"></circle><circle r="5" cx="-60.62" cy="549.76" fill="#132e65"></circle><circle r="5" cx="-96.83" cy="679.39" fill="#132e65"></circle><circle r="5" cx="48.34" cy="390.22" fill="#132e65"></circle><circle r="5" cx="80.43" cy="504.08" fill="#132e65"></circle><circle r="5" cx="89.63" cy="701.38" fill="#132e65"></circle><circle r="5" cx="216.32" cy="394.34" fill="#132e65"></circle><circle r="5" cx="242.94" cy="521.61" fill="#132e65"></circle><circle r="5" cx="247.06" cy="698.88" fill="#132e65"></circle><circle r="5" cx="348.24" cy="368.02" fill="#132e65"></circle><circle r="5" cx="350.59" cy="505.62" fill="#132e65"></circle><circle r="5" cx="364.32" cy="655.25" fill="#132e65"></circle><circle r="5" cx="539.38" cy="396.13" fill="#132e65"></circle><circle r="5" cx="513.91" cy="535.74" fill="#132e65"></circle><circle r="5" cx="523.66" cy="686.96" fill="#132e65"></circle><circle r="5" cx="641.85" cy="376.6" fill="#132e65"></circle><circle r="5" cx="668.18" cy="679.49" fill="#132e65"></circle><circle r="5" cx="847.43" cy="77.69" fill="#132e65"></circle><circle r="5" cx="821.47" cy="248.25" fill="#132e65"></circle><circle r="5" cx="812.18" cy="341.19" fill="#132e65"></circle><circle r="5" cx="844.54" cy="499.44" fill="#132e65"></circle><circle r="5" cx="862.22" cy="646.64" fill="#132e65"></circle><circle r="5" cx="1007.17" cy="-43.54" fill="#132e65"></circle><circle r="5" cx="1002.1" cy="70.21" fill="#132e65"></circle><circle r="5" cx="998.18" cy="230.88" fill="#132e65"></circle><circle r="5" cx="976.74" cy="364.33" fill="#132e65"></circle><circle r="5" cx="947.91" cy="537.59" fill="#132e65"></circle><circle r="5" cx="981.12" cy="669.91" fill="#132e65"></circle><circle r="5" cx="1112.87" cy="-52.54" fill="#132e65"></circle><circle r="5" cx="1087.96" cy="54.9" fill="#132e65"></circle><circle r="5" cx="1110.12" cy="237.85" fill="#132e65"></circle><circle r="5" cx="1111.67" cy="353.53" fill="#132e65"></circle><circle r="5" cx="1095.77" cy="531.21" fill="#132e65"></circle><circle r="5" cx="1112.08" cy="659.04" fill="#132e65"></circle><circle r="5" cx="1281.85" cy="-50.03" fill="#132e65"></circle><circle r="5" cx="1298.22" cy="77.88" fill="#132e65"></circle><circle r="5" cx="1311.34" cy="382.12" fill="#132e65"></circle><circle r="5" cx="1248.36" cy="508.93" fill="#132e65"></circle><circle r="5" cx="1268.06" cy="667.79" fill="#132e65"></circle><circle r="5" cx="1453.82" cy="42.62" fill="#132e65"></circle><circle r="5" cx="1451.42" cy="245.03" fill="#132e65"></circle><circle r="5" cx="1434.25" cy="400.23" fill="#132e65"></circle><circle r="5" cx="1423.18" cy="489.32" fill="#132e65"></circle><circle r="5" cx="1455.95" cy="659.83" fill="#132e65"></circle><circle r="5" cx="1588" cy="-92.53" fill="#132e65"></circle><circle r="5" cx="1571.16" cy="95.64" fill="#132e65"></circle><circle r="5" cx="1557.96" cy="246.49" fill="#132e65"></circle><circle r="5" cx="1544.97" cy="668.18" fill="#132e65"></circle><path d="M344.97 521.91L344.97 521.91" stroke="hsl(228.5, 77.2%, 51.5%)" stroke-width="1.5"></path><path d="M344.97 521.91L488.59 520.5" stroke="hsl(228.5, 77.2%, 51.5%)" stroke-width="1.5"></path><path d="M344.97 521.91L348.14 668.47" stroke="hsl(228.5, 77.2%, 51.5%)" stroke-width="1.5"></path><path d="M344.97 521.91L243.82 687.34" stroke="hsl(228.5, 77.2%, 51.5%)" stroke-width="1.5"></path><path d="M344.97 521.91L504.62 675.79" stroke="hsl(228.5, 77.2%, 51.5%)" stroke-width="1.5"></path><path d="M344.97 521.91L100.55 656.52" stroke="hsl(228.5, 77.2%, 51.5%)" stroke-width="1.5"></path><path d="M658.81 645.86L658.81 645.86" stroke="hsl(228.5, 77.2%, 51.5%)" stroke-width="1.5"></path><path d="M658.81 645.86L649.42 500.85" stroke="hsl(228.5, 77.2%, 51.5%)" stroke-width="1.5"></path><path d="M658.81 645.86L807.65 682.35" stroke="hsl(228.5, 77.2%, 51.5%)" stroke-width="1.5"></path><path d="M658.81 645.86L504.62 675.79" stroke="hsl(228.5, 77.2%, 51.5%)" stroke-width="1.5"></path><path d="M951.75 541.67L951.75 541.67" stroke="hsl(228.5, 77.2%, 51.5%)" stroke-width="1.5"></path><path d="M951.75 541.67L1004.14 641.88" stroke="hsl(228.5, 77.2%, 51.5%)" stroke-width="1.5"></path><path d="M951.75 541.67L948.96 396.69" stroke="hsl(228.5, 77.2%, 51.5%)" stroke-width="1.5"></path><path d="M951.75 541.67L1134.26 499.9" stroke="hsl(228.5, 77.2%, 51.5%)" stroke-width="1.5"></path><path d="M951.75 541.67L1090.31 402.93" stroke="hsl(228.5, 77.2%, 51.5%)" stroke-width="1.5"></path><path d="M1419.85 225.98L1419.85 225.98" stroke="hsl(228.5, 77.2%, 51.5%)" stroke-width="1.5"></path><path d="M1419.85 225.98L1430.23 364.49" stroke="hsl(228.5, 77.2%, 51.5%)" stroke-width="1.5"></path><path d="M1419.85 225.98L1273.18 209.02" stroke="hsl(228.5, 77.2%, 51.5%)" stroke-width="1.5"></path><path d="M1419.85 225.98L1543.47 382.94" stroke="hsl(228.5, 77.2%, 51.5%)" stroke-width="1.5"></path><path d="M1419.85 225.98L1298.41 386.08" stroke="hsl(228.5, 77.2%, 51.5%)" stroke-width="1.5"></path><path d="M1419.85 225.98L1550.16 70.1" stroke="hsl(228.5, 77.2%, 51.5%)" stroke-width="1.5"></path><path d="M-102.89 490.04L-102.89 490.04" stroke="hsl(228.5, 77.2%, 51.5%)" stroke-width="1.5"></path><path d="M-102.89 490.04L64.56 554.4" stroke="hsl(228.5, 77.2%, 51.5%)" stroke-width="1.5"></path><path d="M-102.89 490.04L-79.96 696.45" stroke="hsl(228.5, 77.2%, 51.5%)" stroke-width="1.5"></path><path d="M-102.89 490.04L100.55 656.52" stroke="hsl(228.5, 77.2%, 51.5%)" stroke-width="1.5"></path><path d="M-102.89 490.04L243.82 687.34" stroke="hsl(228.5, 77.2%, 51.5%)" stroke-width="1.5"></path><path d="M-102.89 490.04L344.97 521.91" stroke="hsl(228.5, 77.2%, 51.5%)" stroke-width="1.5"></path><path d="M-79.96 696.45L-79.96 696.45" stroke="hsl(228.5, 77.2%, 51.5%)" stroke-width="1.5"></path><path d="M-79.96 696.45L100.55 656.52" stroke="hsl(228.5, 77.2%, 51.5%)" stroke-width="1.5"></path><path d="M-79.96 696.45L64.56 554.4" stroke="hsl(228.5, 77.2%, 51.5%)" stroke-width="1.5"></path><path d="M64.56 554.4L64.56 554.4" stroke="hsl(228.5, 77.2%, 51.5%)" stroke-width="1.5"></path><path d="M64.56 554.4L100.55 656.52" stroke="hsl(228.5, 77.2%, 51.5%)" stroke-width="1.5"></path><path d="M64.56 554.4L243.82 687.34" stroke="hsl(228.5, 77.2%, 51.5%)" stroke-width="1.5"></path><path d="M100.55 656.52L100.55 656.52" stroke="hsl(228.5, 77.2%, 51.5%)" stroke-width="1.5"></path><path d="M100.55 656.52L243.82 687.34" stroke="hsl(228.5, 77.2%, 51.5%)" stroke-width="1.5"></path><path d="M100.55 656.52L348.14 668.47" stroke="hsl(228.5, 77.2%, 51.5%)" stroke-width="1.5"></path><path d="M243.82 687.34L243.82 687.34" stroke="hsl(228.5, 77.2%, 51.5%)" stroke-width="1.5"></path><path d="M243.82 687.34L348.14 668.47" stroke="hsl(228.5, 77.2%, 51.5%)" stroke-width="1.5"></path><path d="M348.14 668.47L348.14 668.47" stroke="hsl(228.5, 77.2%, 51.5%)" stroke-width="1.5"></path><path d="M348.14 668.47L504.62 675.79" stroke="hsl(228.5, 77.2%, 51.5%)" stroke-width="1.5"></path><path d="M348.14 668.47L488.59 520.5" stroke="hsl(228.5, 77.2%, 51.5%)" stroke-width="1.5"></path><path d="M348.14 668.47L64.56 554.4" stroke="hsl(228.5, 77.2%, 51.5%)" stroke-width="1.5"></path><path d="M488.59 520.5L488.59 520.5" stroke="hsl(228.5, 77.2%, 51.5%)" stroke-width="1.5"></path><path d="M488.59 520.5L504.62 675.79" stroke="hsl(228.5, 77.2%, 51.5%)" stroke-width="1.5"></path><path d="M488.59 520.5L649.42 500.85" stroke="hsl(228.5, 77.2%, 51.5%)" stroke-width="1.5"></path><path d="M488.59 520.5L658.81 645.86" stroke="hsl(228.5, 77.2%, 51.5%)" stroke-width="1.5"></path><path d="M504.62 675.79L504.62 675.79" stroke="hsl(228.5, 77.2%, 51.5%)" stroke-width="1.5"></path><path d="M504.62 675.79L649.42 500.85" stroke="hsl(228.5, 77.2%, 51.5%)" stroke-width="1.5"></path><path d="M649.42 500.85L649.42 500.85" stroke="hsl(228.5, 77.2%, 51.5%)" stroke-width="1.5"></path><path d="M860.99 338.31L860.99 338.31" stroke="hsl(228.5, 77.2%, 51.5%)" stroke-width="1.5"></path><path d="M860.99 338.31L948.96 396.69" stroke="hsl(228.5, 77.2%, 51.5%)" stroke-width="1.5"></path><path d="M860.99 338.31L951.75 541.67" stroke="hsl(228.5, 77.2%, 51.5%)" stroke-width="1.5"></path><path d="M860.99 338.31L1090.31 402.93" stroke="hsl(228.5, 77.2%, 51.5%)" stroke-width="1.5"></path><path d="M860.99 338.31L649.42 500.85" stroke="hsl(228.5, 77.2%, 51.5%)" stroke-width="1.5"></path><path d="M807.65 682.35L807.65 682.35" stroke="hsl(228.5, 77.2%, 51.5%)" stroke-width="1.5"></path><path d="M807.65 682.35L1004.14 641.88" stroke="hsl(228.5, 77.2%, 51.5%)" stroke-width="1.5"></path><path d="M807.65 682.35L951.75 541.67" stroke="hsl(228.5, 77.2%, 51.5%)" stroke-width="1.5"></path><path d="M807.65 682.35L649.42 500.85" stroke="hsl(228.5, 77.2%, 51.5%)" stroke-width="1.5"></path><path d="M807.65 682.35L504.62 675.79" stroke="hsl(228.5, 77.2%, 51.5%)" stroke-width="1.5"></path><path d="M807.65 682.35L948.96 396.69" stroke="hsl(228.5, 77.2%, 51.5%)" stroke-width="1.5"></path><path d="M948.96 396.69L948.96 396.69" stroke="hsl(228.5, 77.2%, 51.5%)" stroke-width="1.5"></path><path d="M948.96 396.69L1090.31 402.93" stroke="hsl(228.5, 77.2%, 51.5%)" stroke-width="1.5"></path><path d="M948.96 396.69L1134.26 499.9" stroke="hsl(228.5, 77.2%, 51.5%)" stroke-width="1.5"></path><path d="M948.96 396.69L1134.42 247.92" stroke="hsl(228.5, 77.2%, 51.5%)" stroke-width="1.5"></path><path d="M948.96 396.69L1004.14 641.88" stroke="hsl(228.5, 77.2%, 51.5%)" stroke-width="1.5"></path><path d="M1004.14 641.88L1004.14 641.88" stroke="hsl(228.5, 77.2%, 51.5%)" stroke-width="1.5"></path><path d="M1004.14 641.88L1154.37 664.8" stroke="hsl(228.5, 77.2%, 51.5%)" stroke-width="1.5"></path><path d="M1004.14 641.88L1134.26 499.9" stroke="hsl(228.5, 77.2%, 51.5%)" stroke-width="1.5"></path><path d="M1134.42 247.92L1134.42 247.92" stroke="hsl(228.5, 77.2%, 51.5%)" stroke-width="1.5"></path><path d="M1134.42 247.92L1273.18 209.02" stroke="hsl(228.5, 77.2%, 51.5%)" stroke-width="1.5"></path><path d="M1134.42 247.92L1090.31 402.93" stroke="hsl(228.5, 77.2%, 51.5%)" stroke-width="1.5"></path><path d="M1090.31 402.93L1090.31 402.93" stroke="hsl(228.5, 77.2%, 51.5%)" stroke-width="1.5"></path><path d="M1090.31 402.93L1134.26 499.9" stroke="hsl(228.5, 77.2%, 51.5%)" stroke-width="1.5"></path><path d="M1090.31 402.93L1238.5 511.13" stroke="hsl(228.5, 77.2%, 51.5%)" stroke-width="1.5"></path><path d="M1090.31 402.93L1298.41 386.08" stroke="hsl(228.5, 77.2%, 51.5%)" stroke-width="1.5"></path><path d="M1134.26 499.9L1134.26 499.9" stroke="hsl(228.5, 77.2%, 51.5%)" stroke-width="1.5"></path><path d="M1134.26 499.9L1238.5 511.13" stroke="hsl(228.5, 77.2%, 51.5%)" stroke-width="1.5"></path><path d="M1134.26 499.9L1154.37 664.8" stroke="hsl(228.5, 77.2%, 51.5%)" stroke-width="1.5"></path><path d="M1134.26 499.9L1242.05 653.82" stroke="hsl(228.5, 77.2%, 51.5%)" stroke-width="1.5"></path><path d="M1154.37 664.8L1154.37 664.8" stroke="hsl(228.5, 77.2%, 51.5%)" stroke-width="1.5"></path><path d="M1154.37 664.8L1242.05 653.82" stroke="hsl(228.5, 77.2%, 51.5%)" stroke-width="1.5"></path><path d="M1305.41 -83.92L1305.41 -83.92" stroke="hsl(228.5, 77.2%, 51.5%)" stroke-width="1.5"></path><path d="M1305.41 -83.92L1420.74 -53.78" stroke="hsl(228.5, 77.2%, 51.5%)" stroke-width="1.5"></path><path d="M1305.41 -83.92L1251.95 63.76" stroke="hsl(228.5, 77.2%, 51.5%)" stroke-width="1.5"></path><path d="M1305.41 -83.92L1589.57 -42.98" stroke="hsl(228.5, 77.2%, 51.5%)" stroke-width="1.5"></path><path d="M1305.41 -83.92L1550.16 70.1" stroke="hsl(228.5, 77.2%, 51.5%)" stroke-width="1.5"></path><path d="M1251.95 63.76L1251.95 63.76" stroke="hsl(228.5, 77.2%, 51.5%)" stroke-width="1.5"></path><path d="M1251.95 63.76L1273.18 209.02" stroke="hsl(228.5, 77.2%, 51.5%)" stroke-width="1.5"></path><path d="M1251.95 63.76L1420.74 -53.78" stroke="hsl(228.5, 77.2%, 51.5%)" stroke-width="1.5"></path><path d="M1251.95 63.76L1134.42 247.92" stroke="hsl(228.5, 77.2%, 51.5%)" stroke-width="1.5"></path><path d="M1273.18 209.02L1273.18 209.02" stroke="hsl(228.5, 77.2%, 51.5%)" stroke-width="1.5"></path><path d="M1273.18 209.02L1298.41 386.08" stroke="hsl(228.5, 77.2%, 51.5%)" stroke-width="1.5"></path><path d="M1273.18 209.02L1430.23 364.49" stroke="hsl(228.5, 77.2%, 51.5%)" stroke-width="1.5"></path><path d="M1273.18 209.02L1090.31 402.93" stroke="hsl(228.5, 77.2%, 51.5%)" stroke-width="1.5"></path><path d="M1298.41 386.08L1298.41 386.08" stroke="hsl(228.5, 77.2%, 51.5%)" stroke-width="1.5"></path><path d="M1298.41 386.08L1430.23 364.49" stroke="hsl(228.5, 77.2%, 51.5%)" stroke-width="1.5"></path><path d="M1298.41 386.08L1238.5 511.13" stroke="hsl(228.5, 77.2%, 51.5%)" stroke-width="1.5"></path><path d="M1298.41 386.08L1407.01 509.9" stroke="hsl(228.5, 77.2%, 51.5%)" stroke-width="1.5"></path><path d="M1298.41 386.08L1134.26 499.9" stroke="hsl(228.5, 77.2%, 51.5%)" stroke-width="1.5"></path><path d="M1238.5 511.13L1238.5 511.13" stroke="hsl(228.5, 77.2%, 51.5%)" stroke-width="1.5"></path><path d="M1238.5 511.13L1242.05 653.82" stroke="hsl(228.5, 77.2%, 51.5%)" stroke-width="1.5"></path><path d="M1238.5 511.13L1407.01 509.9" stroke="hsl(228.5, 77.2%, 51.5%)" stroke-width="1.5"></path><path d="M1242.05 653.82L1242.05 653.82" stroke="hsl(228.5, 77.2%, 51.5%)" stroke-width="1.5"></path><path d="M1242.05 653.82L1431.87 706.84" stroke="hsl(228.5, 77.2%, 51.5%)" stroke-width="1.5"></path><path d="M1242.05 653.82L1407.01 509.9" stroke="hsl(228.5, 77.2%, 51.5%)" stroke-width="1.5"></path><path d="M1242.05 653.82L1004.14 641.88" stroke="hsl(228.5, 77.2%, 51.5%)" stroke-width="1.5"></path><path d="M1420.74 -53.78L1420.74 -53.78" stroke="hsl(228.5, 77.2%, 51.5%)" stroke-width="1.5"></path><path d="M1420.74 -53.78L1589.57 -42.98" stroke="hsl(228.5, 77.2%, 51.5%)" stroke-width="1.5"></path><path d="M1420.74 -53.78L1550.16 70.1" stroke="hsl(228.5, 77.2%, 51.5%)" stroke-width="1.5"></path><path d="M1420.74 -53.78L1419.85 225.98" stroke="hsl(228.5, 77.2%, 51.5%)" stroke-width="1.5"></path><path d="M1430.23 364.49L1430.23 364.49" stroke="hsl(228.5, 77.2%, 51.5%)" stroke-width="1.5"></path><path d="M1430.23 364.49L1543.47 382.94" stroke="hsl(228.5, 77.2%, 51.5%)" stroke-width="1.5"></path><path d="M1430.23 364.49L1407.01 509.9" stroke="hsl(228.5, 77.2%, 51.5%)" stroke-width="1.5"></path><path d="M1407.01 509.9L1407.01 509.9" stroke="hsl(228.5, 77.2%, 51.5%)" stroke-width="1.5"></path><path d="M1407.01 509.9L1543.47 382.94" stroke="hsl(228.5, 77.2%, 51.5%)" stroke-width="1.5"></path><path d="M1407.01 509.9L1431.87 706.84" stroke="hsl(228.5, 77.2%, 51.5%)" stroke-width="1.5"></path><path d="M1431.87 706.84L1431.87 706.84" stroke="hsl(228.5, 77.2%, 51.5%)" stroke-width="1.5"></path><path d="M1431.87 706.84L1595.04 681.5" stroke="hsl(228.5, 77.2%, 51.5%)" stroke-width="1.5"></path><path d="M1431.87 706.84L1238.5 511.13" stroke="hsl(228.5, 77.2%, 51.5%)" stroke-width="1.5"></path><path d="M1431.87 706.84L1154.37 664.8" stroke="hsl(228.5, 77.2%, 51.5%)" stroke-width="1.5"></path><path d="M1589.57 -42.98L1589.57 -42.98" stroke="hsl(228.5, 77.2%, 51.5%)" stroke-width="1.5"></path><path d="M1589.57 -42.98L1550.16 70.1" stroke="hsl(228.5, 77.2%, 51.5%)" stroke-width="1.5"></path><path d="M1589.57 -42.98L1419.85 225.98" stroke="hsl(228.5, 77.2%, 51.5%)" stroke-width="1.5"></path><path d="M1550.16 70.1L1550.16 70.1" stroke="hsl(228.5, 77.2%, 51.5%)" stroke-width="1.5"></path><path d="M1543.47 382.94L1543.47 382.94" stroke="hsl(228.5, 77.2%, 51.5%)" stroke-width="1.5"></path><path d="M1543.47 382.94L1298.41 386.08" stroke="hsl(228.5, 77.2%, 51.5%)" stroke-width="1.5"></path><path d="M1543.47 382.94L1595.04 681.5" stroke="hsl(228.5, 77.2%, 51.5%)" stroke-width="1.5"></path><path d="M1595.04 681.5L1595.04 681.5" stroke="hsl(228.5, 77.2%, 51.5%)" stroke-width="1.5"></path><path d="M1595.04 681.5L1407.01 509.9" stroke="hsl(228.5, 77.2%, 51.5%)" stroke-width="1.5"></path><circle r="25" cx="344.97" cy="521.91" fill="url(#SvgjsRadialGradient1001)"></circle><circle r="25" cx="658.81" cy="645.86" fill="url(#SvgjsRadialGradient1001)"></circle><circle r="25" cx="951.75" cy="541.67" fill="url(#SvgjsRadialGradient1001)"></circle><circle r="25" cx="1419.85" cy="225.98" fill="url(#SvgjsRadialGradient1001)"></circle><circle r="5" cx="-102.89" cy="490.04" fill="#8b9ad9"></circle><circle r="5" cx="-79.96" cy="696.45" fill="#8b9ad9"></circle><circle r="5" cx="64.56" cy="554.4" fill="#8b9ad9"></circle><circle r="5" cx="100.55" cy="656.52" fill="#8b9ad9"></circle><circle r="5" cx="243.82" cy="687.34" fill="#8b9ad9"></circle><circle r="5" cx="348.14" cy="668.47" fill="#8b9ad9"></circle><circle r="5" cx="488.59" cy="520.5" fill="#8b9ad9"></circle><circle r="5" cx="504.62" cy="675.79" fill="#8b9ad9"></circle><circle r="5" cx="649.42" cy="500.85" fill="#8b9ad9"></circle><circle r="5" cx="860.99" cy="338.31" fill="#8b9ad9"></circle><circle r="5" cx="807.65" cy="682.35" fill="#8b9ad9"></circle><circle r="5" cx="948.96" cy="396.69" fill="#8b9ad9"></circle><circle r="5" cx="1004.14" cy="641.88" fill="#8b9ad9"></circle><circle r="5" cx="1134.42" cy="247.92" fill="#8b9ad9"></circle><circle r="5" cx="1090.31" cy="402.93" fill="#8b9ad9"></circle><circle r="5" cx="1134.26" cy="499.9" fill="#8b9ad9"></circle><circle r="5" cx="1154.37" cy="664.8" fill="#8b9ad9"></circle><circle r="5" cx="1305.41" cy="-83.92" fill="#8b9ad9"></circle><circle r="5" cx="1251.95" cy="63.76" fill="#8b9ad9"></circle><circle r="5" cx="1273.18" cy="209.02" fill="#8b9ad9"></circle><circle r="5" cx="1298.41" cy="386.08" fill="#8b9ad9"></circle><circle r="5" cx="1238.5" cy="511.13" fill="#8b9ad9"></circle><circle r="5" cx="1242.05" cy="653.82" fill="#8b9ad9"></circle><circle r="5" cx="1420.74" cy="-53.78" fill="#8b9ad9"></circle><circle r="5" cx="1430.23" cy="364.49" fill="#8b9ad9"></circle><circle r="5" cx="1407.01" cy="509.9" fill="#8b9ad9"></circle><circle r="5" cx="1431.87" cy="706.84" fill="#8b9ad9"></circle><circle r="5" cx="1589.57" cy="-42.98" fill="#8b9ad9"></circle><circle r="5" cx="1550.16" cy="70.1" fill="#8b9ad9"></circle><circle r="5" cx="1543.47" cy="382.94" fill="#8b9ad9"></circle><circle r="5" cx="1595.04" cy="681.5" fill="#8b9ad9"></circle></g><defs><mask id="SvgjsMask1000"><rect width="1440" height="560" fill="#ffffff"></rect></mask><radialGradient id="SvgjsRadialGradient1001"><stop stop-color="#ffffff" offset="0.1"></stop><stop stop-color="#1735b3" offset="0.2"></stop><stop stop-color="rgba(23, 53, 179, 0)" offset="1"></stop></radialGradient></defs></svg>